<svg width="32" height="97" viewBox="0 0 32 97" fill="none" xmlns="http://www.w3.org/2000/svg">
<path d="M16 61L16 9.53674e-07" stroke="url(#paint0_linear_0_351)"/>
<path d="M2.464 88C2.432 88 2.416 87.968 2.416 87.904C2.416 87.84 2.42667 87.808 2.448 87.808C2.896 87.808 3.22133 87.7813 3.424 87.728C3.63733 87.6747 3.78133 87.5733 3.856 87.424C3.93067 87.264 3.968 87.024 3.968 86.704L3.968 79.296C3.97867 78.9227 3.93067 78.6773 3.824 78.56C3.71733 78.432 3.51467 78.368 3.216 78.368H3.008C2.64533 78.368 2.288 78.4853 1.936 78.72C1.584 78.944 1.28533 79.248 1.04 79.632C0.794667 80.0053 0.645333 80.416 0.592 80.864C0.592 80.8853 0.565333 80.896 0.512 80.896C0.48 80.896 0.448 80.8907 0.416 80.88C0.394667 80.8587 0.389333 80.8427 0.4 80.832C0.453333 80.4267 0.533333 79.3653 0.64 77.648C0.64 77.616 0.666667 77.6 0.72 77.6C0.752 77.6 0.778667 77.6053 0.8 77.616C0.832 77.6267 0.848 77.6427 0.848 77.664C0.848 77.888 1.088 78 1.568 78C2.432 78.032 3.51467 78.048 4.816 78.048C5.40267 78.048 6.05867 78.0373 6.784 78.016L7.904 78C8.256 78 8.512 77.9733 8.672 77.92C8.832 77.8667 8.93333 77.76 8.976 77.6C8.99733 77.568 9.03467 77.5573 9.088 77.568C9.152 77.568 9.17867 77.5893 9.168 77.632C9.136 78.1013 9.104 78.6933 9.072 79.408C9.04 80.112 9.02933 80.5867 9.04 80.832C9.04 80.864 9.008 80.88 8.944 80.88C8.85867 80.88 8.816 80.8587 8.816 80.816C8.816 80.3787 8.71467 79.9733 8.512 79.6C8.32 79.2267 8.048 78.928 7.696 78.704C7.35467 78.48 6.98133 78.368 6.576 78.368H6.368C6.15467 78.368 6 78.3947 5.904 78.448C5.81867 78.5013 5.76533 78.592 5.744 78.72C5.72267 78.8373 5.70667 79.04 5.696 79.328L5.712 86.704C5.712 87.0347 5.744 87.2747 5.808 87.424C5.88267 87.5733 6.02133 87.6747 6.224 87.728C6.42667 87.7813 6.75733 87.808 7.216 87.808C7.248 87.808 7.264 87.84 7.264 87.904C7.264 87.968 7.248 88 7.216 88C6.82133 88 6.512 87.9947 6.288 87.984L4.832 87.968L3.456 87.984C3.22133 87.9947 2.89067 88 2.464 88ZM15.6798 88.192C14.6664 88.192 13.7704 87.9627 12.9918 87.504C12.2131 87.0453 11.6104 86.4267 11.1838 85.648C10.7678 84.8587 10.5598 83.984 10.5598 83.024C10.5598 82.0427 10.7891 81.1573 11.2478 80.368C11.7171 79.5787 12.3571 78.96 13.1678 78.512C13.9891 78.0533 14.9118 77.824 15.9358 77.824C16.9704 77.824 17.8824 78.048 18.6718 78.496C19.4611 78.9333 20.0691 79.5413 20.4958 80.32C20.9331 81.088 21.1518 81.9467 21.1518 82.896C21.1518 83.952 20.9011 84.8853 20.3998 85.696C19.9091 86.496 19.2424 87.1147 18.3998 87.552C17.5678 87.9787 16.6611 88.192 15.6798 88.192ZM16.3518 87.776C16.9384 87.776 17.4504 87.616 17.8878 87.296C18.3358 86.976 18.6824 86.5227 18.9278 85.936C19.1731 85.3387 19.2958 84.64 19.2958 83.84C19.2958 82.8587 19.1304 81.936 18.7998 81.072C18.4691 80.208 18.0051 79.5147 17.4078 78.992C16.8104 78.4693 16.1278 78.208 15.3598 78.208C14.7731 78.208 14.2558 78.368 13.8078 78.688C13.3598 79.008 13.0131 79.4667 12.7678 80.064C12.5224 80.6507 12.3998 81.344 12.3998 82.144C12.3998 83.104 12.5651 84.0213 12.8958 84.896C13.2264 85.76 13.6904 86.4587 14.2878 86.992C14.8958 87.5147 15.5838 87.776 16.3518 87.776ZM23.1254 88C23.0934 88 23.0774 87.968 23.0774 87.904C23.0774 87.84 23.0934 87.808 23.1254 87.808C23.456 87.808 23.696 87.7813 23.8454 87.728C23.9947 87.6747 24.096 87.5733 24.1494 87.424C24.2027 87.264 24.2294 87.024 24.2294 86.704L24.2294 79.296C24.2294 78.976 24.1974 78.7413 24.1334 78.592C24.08 78.4427 23.9734 78.3413 23.8134 78.288C23.664 78.224 23.4347 78.192 23.1254 78.192C23.0934 78.192 23.0774 78.16 23.0774 78.096C23.0774 78.032 23.0934 78 23.1254 78L23.9094 78.016C24.3574 78.0373 24.7307 78.048 25.0294 78.048C25.4454 78.048 25.9094 78.0267 26.4214 77.984C26.784 77.9627 27.024 77.952 27.1414 77.952C28.272 77.952 29.1894 78.1813 29.8934 78.64C30.608 79.0987 30.9654 79.76 30.9654 80.624C30.9654 81.328 30.7734 81.92 30.3894 82.4C30.0054 82.88 29.5254 83.2373 28.9494 83.472C28.3734 83.696 27.7974 83.808 27.2214 83.808C26.9014 83.808 26.6507 83.7813 26.4694 83.728C26.448 83.728 26.4374 83.6907 26.4374 83.616C26.4374 83.5627 26.4427 83.5147 26.4534 83.472C26.4747 83.4187 26.496 83.3973 26.5174 83.408C26.656 83.4507 26.8267 83.472 27.0294 83.472C27.6267 83.472 28.1174 83.264 28.5014 82.848C28.896 82.4213 29.0934 81.7867 29.0934 80.944C29.0934 80.4 28.9867 79.9307 28.7734 79.536C28.56 79.1307 28.2827 78.8213 27.9414 78.608C27.6107 78.3947 27.2587 78.288 26.8854 78.288C26.512 78.288 26.2614 78.3573 26.1334 78.496C26.016 78.624 25.952 78.9013 25.9414 79.328L25.9574 86.704C25.9574 87.024 25.984 87.2587 26.0374 87.408C26.1014 87.5573 26.2027 87.664 26.3414 87.728C26.4907 87.7813 26.72 87.808 27.0294 87.808C27.0614 87.808 27.0774 87.84 27.0774 87.904C27.088 87.968 27.072 88 27.0294 88C26.688 88 26.4214 87.9947 26.2294 87.984L25.0774 87.968L23.9414 87.984C23.7387 87.9947 23.4667 88 23.1254 88Z" fill="#DCCA87"/>
<defs>
<linearGradient id="paint0_linear_0_351" x1="44.5042" y1="-11.8571" x2="44.5042" y2="78.2931" gradientUnits="userSpaceOnUse">
<stop stop-color="#DCCA87"/>
<stop offset="0.430036" stop-color="#DCCA87"/>
<stop offset="0.927083" stop-color="#DCCA87" stop-opacity="0.24"/>
</linearGradient>
</defs>
</svg>
