    <svg width="116" height="28" viewBox="0 0 116 28" fill="none" xmlns="http://www.w3.org/2000/svg">
<path d="M3.93563 19.208C3.2423 19.208 2.63963 19 2.12763 18.584C1.6263 18.1573 1.23697 17.5547 0.959634 16.776C0.692967 15.9867 0.559634 15.0587 0.559634 13.992C0.559634 12.936 0.692967 12.0187 0.959634 11.24C1.23697 10.4613 1.63163 9.864 2.14363 9.448C2.6663 9.02133 3.2743 8.808 3.96763 8.808C4.6503 8.808 5.23697 9.02133 5.72763 9.448C6.22897 9.864 6.61297 10.4667 6.87963 11.256C7.1463 12.0453 7.27963 12.9733 7.27963 14.04C7.27963 15.096 7.14097 16.0133 6.86363 16.792C6.59697 17.5707 6.21297 18.168 5.71163 18.584C5.2103 19 4.6183 19.208 3.93563 19.208ZM4.12763 18.904C4.66097 18.904 5.04497 18.5307 5.27963 17.784C5.52497 17.0267 5.64763 15.8427 5.64763 14.232C5.64763 12.4507 5.49297 11.1493 5.18363 10.328C4.8743 9.50667 4.4103 9.096 3.79163 9.096C3.24763 9.096 2.8423 9.49067 2.57563 10.28C2.31963 11.0587 2.19163 12.2587 2.19163 13.88C2.19163 15.5867 2.3463 16.8507 2.65563 17.672C2.97563 18.4933 3.4663 18.904 4.12763 18.904ZM10.739 19C10.7177 19 10.707 18.968 10.707 18.904C10.707 18.84 10.7177 18.808 10.739 18.808C11.2083 18.808 11.5603 18.7813 11.795 18.728C12.0403 18.664 12.2163 18.5573 12.323 18.408C12.4297 18.248 12.483 18.0133 12.483 17.704V11.752C12.483 11.0267 12.3123 10.664 11.971 10.664C11.715 10.664 11.3043 10.8667 10.739 11.272L10.707 11.288C10.6643 11.288 10.6323 11.2667 10.611 11.224C10.5897 11.1707 10.5897 11.1333 10.611 11.112L13.699 8.888C13.7417 8.86667 13.779 8.856 13.811 8.856C13.8323 8.856 13.8537 8.86667 13.875 8.888C13.8963 8.90933 13.907 8.93067 13.907 8.952V17.704C13.907 18.024 13.955 18.2587 14.051 18.408C14.147 18.5573 14.3123 18.664 14.547 18.728C14.7923 18.7813 15.155 18.808 15.635 18.808C15.667 18.808 15.683 18.84 15.683 18.904C15.683 18.968 15.667 19 15.635 19C15.2083 19 14.8723 18.9947 14.627 18.984L13.187 18.968L11.795 18.984C11.539 18.9947 11.187 19 10.739 19Z" fill="white"/>
<line x1="24.9996" y1="13.5" x2="40.9996" y2="13.5" stroke="#DCCA87"/>
<path d="M52.9356 19.208C52.2423 19.208 51.6396 19 51.1276 18.584C50.6263 18.1573 50.237 17.5547 49.9596 16.776C49.693 15.9867 49.5596 15.0587 49.5596 13.992C49.5596 12.936 49.693 12.0187 49.9596 11.24C50.237 10.4613 50.6316 9.864 51.1436 9.448C51.6663 9.02133 52.2743 8.808 52.9676 8.808C53.6503 8.808 54.237 9.02133 54.7276 9.448C55.229 9.864 55.613 10.4667 55.8796 11.256C56.1463 12.0453 56.2796 12.9733 56.2796 14.04C56.2796 15.096 56.141 16.0133 55.8636 16.792C55.597 17.5707 55.213 18.168 54.7116 18.584C54.2103 19 53.6183 19.208 52.9356 19.208ZM53.1276 18.904C53.661 18.904 54.045 18.5307 54.2796 17.784C54.525 17.0267 54.6476 15.8427 54.6476 14.232C54.6476 12.4507 54.493 11.1493 54.1836 10.328C53.8743 9.50667 53.4103 9.096 52.7916 9.096C52.2476 9.096 51.8423 9.49067 51.5756 10.28C51.3196 11.0587 51.1916 12.2587 51.1916 13.88C51.1916 15.5867 51.3463 16.8507 51.6556 17.672C51.9756 18.4933 52.4663 18.904 53.1276 18.904ZM58.587 19C58.5337 19 58.4803 18.952 58.427 18.856C58.3737 18.7493 58.3683 18.6747 58.411 18.632L58.907 18.024C59.835 16.8613 60.5177 15.976 60.955 15.368C61.3923 14.7493 61.7443 14.1413 62.011 13.544C62.2777 12.936 62.411 12.3333 62.411 11.736C62.411 11.0427 62.2563 10.536 61.947 10.216C61.6377 9.896 61.2163 9.736 60.683 9.736C60.171 9.736 59.739 9.86933 59.387 10.136C59.0457 10.4027 58.8163 10.776 58.699 11.256C58.699 11.2667 58.6777 11.272 58.635 11.272C58.5497 11.272 58.5123 11.2507 58.523 11.208C58.651 10.472 58.971 9.89067 59.483 9.464C60.0057 9.03733 60.651 8.824 61.419 8.824C62.2083 8.824 62.8217 9.048 63.259 9.496C63.6963 9.944 63.915 10.536 63.915 11.272C63.915 11.8587 63.7763 12.4347 63.499 13C63.2217 13.5653 62.891 14.0827 62.507 14.552C62.1337 15.0213 61.643 15.5813 61.035 16.232C60.9817 16.2853 60.811 16.4667 60.523 16.776C60.2457 17.0747 60.0163 17.3467 59.835 17.592C59.771 17.6667 59.7923 17.704 59.899 17.704C61.1043 17.704 61.9843 17.6827 62.539 17.64C63.0937 17.5867 63.4723 17.4853 63.675 17.336C63.8883 17.176 64.0003 16.9253 64.011 16.584C64.011 16.552 64.0377 16.536 64.091 16.536C64.155 16.536 64.187 16.552 64.187 16.584V18.824C64.187 18.8667 64.171 18.9093 64.139 18.952C64.1177 18.984 64.0857 19 64.043 19H58.587Z" fill="#F5EFDB"/>
<path d="M77.9356 19.208C77.2423 19.208 76.6396 19 76.1276 18.584C75.6263 18.1573 75.237 17.5547 74.9596 16.776C74.693 15.9867 74.5596 15.0587 74.5596 13.992C74.5596 12.936 74.693 12.0187 74.9596 11.24C75.237 10.4613 75.6316 9.864 76.1436 9.448C76.6663 9.02133 77.2743 8.808 77.9676 8.808C78.6503 8.808 79.237 9.02133 79.7276 9.448C80.229 9.864 80.613 10.4667 80.8796 11.256C81.1463 12.0453 81.2796 12.9733 81.2796 14.04C81.2796 15.096 81.141 16.0133 80.8636 16.792C80.597 17.5707 80.213 18.168 79.7116 18.584C79.2103 19 78.6183 19.208 77.9356 19.208ZM78.1276 18.904C78.661 18.904 79.045 18.5307 79.2796 17.784C79.525 17.0267 79.6476 15.8427 79.6476 14.232C79.6476 12.4507 79.493 11.1493 79.1836 10.328C78.8743 9.50667 78.4103 9.096 77.7916 9.096C77.2476 9.096 76.8423 9.49067 76.5756 10.28C76.3196 11.0587 76.1916 12.2587 76.1916 13.88C76.1916 15.5867 76.3463 16.8507 76.6556 17.672C76.9756 18.4933 77.4663 18.904 78.1276 18.904ZM87.075 13.72C87.8217 13.7627 88.4083 14.024 88.835 14.504C89.2617 14.984 89.475 15.5493 89.475 16.2C89.475 16.7867 89.3417 17.3093 89.075 17.768C88.819 18.216 88.4563 18.568 87.987 18.824C87.5177 19.0693 86.979 19.192 86.371 19.192C85.3577 19.192 84.483 18.792 83.747 17.992L83.731 17.96C83.731 17.9173 83.7523 17.8853 83.795 17.864C83.8483 17.832 83.8857 17.832 83.907 17.864C84.1523 18.1093 84.4457 18.296 84.787 18.424C85.139 18.552 85.4803 18.616 85.811 18.616C86.5363 18.616 87.0643 18.408 87.395 17.992C87.7363 17.5653 87.907 17.0107 87.907 16.328C87.907 14.7173 87.0323 13.912 85.283 13.912C85.2403 13.912 85.2137 13.88 85.203 13.816C85.203 13.7413 85.2297 13.704 85.283 13.704C86.1363 13.704 86.7337 13.5173 87.075 13.144C87.427 12.7707 87.603 12.2427 87.603 11.56C87.603 10.888 87.459 10.392 87.171 10.072C86.883 9.752 86.483 9.592 85.971 9.592C85.555 9.592 85.155 9.69867 84.771 9.912C84.387 10.1147 84.1043 10.4187 83.923 10.824C83.923 10.8347 83.907 10.84 83.875 10.84C83.843 10.84 83.8057 10.8293 83.763 10.808C83.731 10.7867 83.7203 10.7707 83.731 10.76C83.9657 10.1627 84.339 9.69333 84.851 9.352C85.363 9 85.9497 8.824 86.611 8.824C87.347 8.824 87.9443 9.032 88.403 9.448C88.8723 9.864 89.107 10.3973 89.107 11.048C89.107 11.624 88.9203 12.1573 88.547 12.648C88.1843 13.1387 87.6937 13.496 87.075 13.72Z" fill="#F5EFDB"/>
<path d="M102.936 19.208C102.242 19.208 101.64 19 101.128 18.584C100.626 18.1573 100.237 17.5547 99.9596 16.776C99.693 15.9867 99.5596 15.0587 99.5596 13.992C99.5596 12.936 99.693 12.0187 99.9596 11.24C100.237 10.4613 100.632 9.864 101.144 9.448C101.666 9.02133 102.274 8.808 102.968 8.808C103.65 8.808 104.237 9.02133 104.728 9.448C105.229 9.864 105.613 10.4667 105.88 11.256C106.146 12.0453 106.28 12.9733 106.28 14.04C106.28 15.096 106.141 16.0133 105.864 16.792C105.597 17.5707 105.213 18.168 104.712 18.584C104.21 19 103.618 19.208 102.936 19.208ZM103.128 18.904C103.661 18.904 104.045 18.5307 104.28 17.784C104.525 17.0267 104.648 15.8427 104.648 14.232C104.648 12.4507 104.493 11.1493 104.184 10.328C103.874 9.50667 103.41 9.096 102.792 9.096C102.248 9.096 101.842 9.49067 101.576 10.28C101.32 11.0587 101.192 12.2587 101.192 13.88C101.192 15.5867 101.346 16.8507 101.656 17.672C101.976 18.4933 102.466 18.904 103.128 18.904ZM114.603 15.496C114.646 15.496 114.667 15.608 114.667 15.832C114.667 16.056 114.646 16.168 114.603 16.168L113.515 16.12V17.704C113.515 18.024 113.536 18.264 113.579 18.424C113.632 18.5733 113.728 18.6747 113.867 18.728C114.016 18.7813 114.246 18.808 114.555 18.808C114.576 18.808 114.587 18.84 114.587 18.904C114.587 18.968 114.576 19 114.555 19C114.246 19 114.006 18.9947 113.835 18.984L112.779 18.968L111.531 18.984C111.318 18.9947 111.019 19 110.635 19C110.614 19 110.603 18.968 110.603 18.904C110.603 18.84 110.614 18.808 110.635 18.808C111.094 18.808 111.414 18.7867 111.595 18.744C111.787 18.6907 111.915 18.5947 111.979 18.456C112.043 18.3067 112.075 18.056 112.075 17.704V16.088C110.688 16.0667 109.419 16.056 108.267 16.056C108.214 16.056 108.171 16.04 108.139 16.008C108.118 15.9653 108.123 15.9227 108.155 15.88L113.275 8.92C113.296 8.89867 113.328 8.888 113.371 8.888C113.403 8.888 113.435 8.89867 113.467 8.92C113.499 8.93067 113.515 8.952 113.515 8.984V15.528C113.728 15.528 114.091 15.5173 114.603 15.496ZM109.147 15.592C110.544 15.592 111.52 15.5867 112.075 15.576V11.272L109.067 15.48C109.003 15.5547 109.03 15.592 109.147 15.592Z" fill="#F5EFDB"/>
</svg>
