<svg width="105" height="24" viewBox="0 0 105 24" fill="none" xmlns="http://www.w3.org/2000/svg">
<path d="M15.62 5.32003H17.5V2.14003C16.5897 2.04538 15.6751 1.99865 14.76 2.00003C12.04 2.00003 10.18 3.66003 10.18 6.70003V9.32003H7.10999V12.88H10.18V22H13.86V12.88H16.92L17.38 9.32003H13.86V7.05003C13.86 6.00003 14.14 5.32003 15.62 5.32003Z" fill="#F5EFDB"/>
<path d="M63.4912 3.95021C63.4913 3.77357 63.4447 3.60007 63.3559 3.44735C63.2671 3.29464 63.1395 3.16817 62.986 3.08084C62.8324 2.9935 62.6585 2.94842 62.4819 2.95017C62.3053 2.95193 62.1323 3.00046 61.9805 3.09083C61.3952 3.43921 60.765 3.70601 60.1075 3.88383C59.1685 3.07806 57.9708 2.63713 56.7335 2.64164C55.3761 2.6432 54.0724 3.17223 53.0977 4.11702C52.123 5.06181 51.5537 6.3484 51.5099 7.70512C48.8338 7.27838 46.4085 5.88164 44.6963 3.78126C44.5931 3.65609 44.4614 3.55757 44.3122 3.494C44.1629 3.43043 44.0006 3.40368 43.8389 3.41601C43.6772 3.42932 43.5213 3.4818 43.3845 3.56892C43.2477 3.65603 43.1342 3.77516 43.0537 3.91601C42.6413 4.63582 42.4044 5.44276 42.3623 6.27131C42.3202 7.09986 42.4741 7.92666 42.8115 8.68456L42.8096 8.68651C42.6579 8.77991 42.5328 8.91066 42.4461 9.06625C42.3594 9.22185 42.3141 9.39708 42.3145 9.57519C42.3126 9.72211 42.3214 9.86898 42.3408 10.0146C42.443 11.2729 43.0006 12.4507 43.9092 13.3271C43.8476 13.4446 43.8099 13.5731 43.7985 13.7052C43.7871 13.8373 43.8022 13.9704 43.8428 14.0967C44.2389 15.3308 45.0813 16.3727 46.2051 17.0185C45.0633 17.46 43.8305 17.614 42.6152 17.4668C42.3903 17.4386 42.1625 17.4876 41.9691 17.6059C41.7757 17.7242 41.6283 17.9047 41.551 18.1178C41.4737 18.3309 41.4711 18.5639 41.5436 18.7787C41.6162 18.9935 41.7595 19.1772 41.9502 19.2998C44.0403 20.646 46.4739 21.3617 48.96 21.3613C51.7793 21.393 54.53 20.4921 56.7843 18.7988C59.0385 17.1054 60.67 14.7145 61.4248 11.998C61.7779 10.8146 61.9582 9.58648 61.96 8.35157C61.96 8.28614 61.96 8.21876 61.959 8.15138C62.4811 7.58831 62.8856 6.92668 63.1487 6.20527C63.4118 5.48387 63.5283 4.7172 63.4912 3.95021ZM60.1846 7.16212C60.0194 7.35746 59.9358 7.60891 59.9512 7.86427C59.961 8.02927 59.96 8.19527 59.96 8.35157C59.9579 9.39511 59.805 10.4329 59.5059 11.4326C58.8894 13.744 57.515 15.7817 55.603 17.2192C53.6909 18.6568 51.3517 19.4111 48.96 19.3613C48.1009 19.3616 47.2447 19.2606 46.4092 19.0606C47.4747 18.7172 48.4708 18.1879 49.3516 17.4971C49.5138 17.3693 49.6326 17.1945 49.6915 16.9967C49.7504 16.7988 49.7467 16.5875 49.6808 16.3918C49.6149 16.1961 49.49 16.0257 49.3234 15.9038C49.1568 15.7819 48.9565 15.7145 48.75 15.7109C47.9189 15.698 47.1251 15.363 46.5361 14.7764C46.6856 14.7481 46.834 14.7129 46.9815 14.6709C47.1975 14.6094 47.3865 14.477 47.5181 14.295C47.6497 14.1131 47.7163 13.8921 47.707 13.6677C47.6978 13.4433 47.6133 13.2285 47.4672 13.058C47.321 12.8874 47.1217 12.7711 46.9014 12.7275C46.4189 12.6323 45.9649 12.427 45.5747 12.1277C45.1845 11.8284 44.8685 11.4432 44.6514 11.002C44.8321 11.0266 45.014 11.0419 45.1963 11.0479C45.4129 11.0511 45.6249 10.9854 45.8017 10.8603C45.9785 10.7351 46.1109 10.5569 46.1797 10.3516C46.2457 10.1443 46.2423 9.92123 46.17 9.7161C46.0978 9.51096 45.9606 9.33499 45.7793 9.21485C45.3395 8.92182 44.9792 8.52427 44.7307 8.0578C44.4822 7.59134 44.3533 7.07052 44.3555 6.54201C44.3555 6.47561 44.3574 6.4092 44.3613 6.34377C46.6026 8.43402 49.5097 9.66621 52.5703 9.82326C52.7248 9.82934 52.8787 9.80024 53.0203 9.73816C53.1619 9.67607 53.2875 9.58262 53.3877 9.46486C53.4869 9.34596 53.5571 9.20566 53.5929 9.05501C53.6286 8.90437 53.6289 8.74748 53.5937 8.5967C53.5366 8.35806 53.5074 8.11357 53.5068 7.86818C53.5077 7.01271 53.848 6.19254 54.4529 5.58764C55.0578 4.98274 55.878 4.64251 56.7334 4.64161C57.1736 4.64043 57.6092 4.7305 58.0127 4.90615C58.4163 5.0818 58.7791 5.3392 59.0781 5.66212C59.1935 5.7862 59.3386 5.87871 59.4998 5.93085C59.661 5.98299 59.8329 5.99303 59.999 5.96001C60.4098 5.88006 60.8147 5.7724 61.2109 5.63775C60.9407 6.19072 60.5953 6.70369 60.1846 7.16212Z" fill="#F5EFDB"/>
<path d="M97.84 5.46C97.6027 5.46 97.3707 5.53038 97.1733 5.66224C96.976 5.79409 96.8222 5.98151 96.7313 6.20078C96.6405 6.42005 96.6168 6.66133 96.6631 6.89411C96.7094 7.12689 96.8236 7.34071 96.9915 7.50853C97.1593 7.67635 97.3731 7.79064 97.6059 7.83694C97.8387 7.88324 98.0799 7.85948 98.2992 7.76866C98.5185 7.67783 98.7059 7.52402 98.8378 7.32668C98.9696 7.12935 99.04 6.89734 99.04 6.66C99.04 6.34174 98.9136 6.03652 98.6885 5.81147C98.4635 5.58643 98.1583 5.46 97.84 5.46ZM102.44 7.88C102.421 7.0503 102.265 6.2294 101.98 5.45C101.726 4.78313 101.33 4.17928 100.82 3.68C100.325 3.16743 99.7196 2.77418 99.05 2.53C98.2727 2.23616 97.4508 2.07721 96.62 2.06C95.56 2 95.22 2 92.5 2C89.78 2 89.44 2 88.38 2.06C87.5492 2.07721 86.7273 2.23616 85.95 2.53C85.2817 2.77665 84.6769 3.16956 84.18 3.68C83.6674 4.17518 83.2742 4.78044 83.03 5.45C82.7362 6.22734 82.5772 7.04915 82.56 7.88C82.5 8.94 82.5 9.28 82.5 12C82.5 14.72 82.5 15.06 82.56 16.12C82.5772 16.9508 82.7362 17.7727 83.03 18.55C83.2742 19.2196 83.6674 19.8248 84.18 20.32C84.6769 20.8304 85.2817 21.2234 85.95 21.47C86.7273 21.7638 87.5492 21.9228 88.38 21.94C89.44 22 89.78 22 92.5 22C95.22 22 95.56 22 96.62 21.94C97.4508 21.9228 98.2727 21.7638 99.05 21.47C99.7196 21.2258 100.325 20.8326 100.82 20.32C101.332 19.8226 101.728 19.2182 101.98 18.55C102.265 17.7706 102.421 16.9497 102.44 16.12C102.44 15.06 102.5 14.72 102.5 12C102.5 9.28 102.5 8.94 102.44 7.88ZM100.64 16C100.633 16.6348 100.518 17.2637 100.3 17.86C100.14 18.2952 99.8839 18.6884 99.55 19.01C99.2256 19.3405 98.8332 19.5964 98.4 19.76C97.8037 19.9778 97.1748 20.0927 96.54 20.1C95.54 20.15 95.17 20.16 92.54 20.16C89.91 20.16 89.54 20.16 88.54 20.1C87.8809 20.1123 87.2246 20.0109 86.6 19.8C86.1858 19.6281 85.8114 19.3728 85.5 19.05C85.1681 18.7287 84.9148 18.3352 84.76 17.9C84.5159 17.2952 84.3804 16.6519 84.36 16C84.36 15 84.3 14.63 84.3 12C84.3 9.37 84.3 9 84.36 8C84.3645 7.35106 84.483 6.70795 84.71 6.1C84.886 5.67791 85.1563 5.30166 85.5 5C85.8038 4.65617 86.1793 4.3831 86.6 4.2C87.2096 3.98004 87.852 3.86508 88.5 3.86C89.5 3.86 89.87 3.8 92.5 3.8C95.13 3.8 95.5 3.8 96.5 3.86C97.1348 3.86728 97.7637 3.98225 98.36 4.2C98.8144 4.36865 99.2223 4.64285 99.55 5C99.8777 5.30718 100.134 5.68273 100.3 6.1C100.522 6.70893 100.637 7.35178 100.64 8C100.69 9 100.7 9.37 100.7 12C100.7 14.63 100.69 15 100.64 16ZM92.5 6.87C91.4858 6.87198 90.495 7.17453 89.6527 7.73942C88.8103 8.30431 88.1544 9.1062 87.7676 10.0438C87.3809 10.9813 87.2807 12.0125 87.4798 13.0069C87.6789 14.0014 88.1682 14.9145 88.8861 15.631C89.6039 16.3474 90.518 16.835 91.5129 17.0321C92.5077 17.2293 93.5387 17.1271 94.4755 16.7385C95.4123 16.35 96.2129 15.6924 96.7761 14.849C97.3394 14.0056 97.64 13.0142 97.64 12C97.6413 11.3251 97.5092 10.6566 97.2512 10.033C96.9933 9.40931 96.6146 8.84281 96.1369 8.36605C95.6592 7.88929 95.0919 7.51168 94.4678 7.25493C93.8436 6.99818 93.1749 6.86736 92.5 6.87ZM92.5 15.33C91.8414 15.33 91.1976 15.1347 90.65 14.7688C90.1023 14.4029 89.6755 13.8828 89.4235 13.2743C89.1714 12.6659 89.1055 11.9963 89.234 11.3503C89.3625 10.7044 89.6796 10.111 90.1453 9.64533C90.611 9.17963 91.2044 8.86247 91.8503 8.73398C92.4963 8.6055 93.1659 8.67144 93.7743 8.92348C94.3828 9.17552 94.9029 9.60234 95.2688 10.15C95.6347 10.6976 95.83 11.3414 95.83 12C95.83 12.4373 95.7439 12.8703 95.5765 13.2743C95.4092 13.6784 95.1639 14.0454 94.8547 14.3547C94.5454 14.6639 94.1784 14.9092 93.7743 15.0765C93.3703 15.2439 92.9373 15.33 92.5 15.33Z" fill="#F5EFDB"/>
</svg>
